<svg width="77" height="64" viewBox="0 0 77 64" fill="none" xmlns="http://www.w3.org/2000/svg">
<g clip-path="url(#clip0)" filter="url(#filter0_d)">
<path d="M43.15 16.87L41.84 15.87C41.6353 15.7043 41.3734 15.626 41.1112 15.6522C40.8491 15.6784 40.6079 15.807 40.44 16.01L22.31 36.83L22.59 37.14L27.08 33C26.9304 32.9398 26.8066 32.8291 26.7301 32.6871C26.6536 32.5451 26.6293 32.3807 26.6614 32.2227C26.6935 32.0646 26.7799 31.9227 26.9057 31.8218C27.0315 31.7208 27.1887 31.6671 27.35 31.67C27.4954 31.67 27.637 31.7166 27.754 31.803C27.871 31.8894 27.9572 32.011 28 32.15L33.92 26.66C34.0107 26.587 34.1236 26.5472 34.24 26.5472C34.3564 26.5472 34.4693 26.587 34.56 26.66L34.86 26.88C34.9615 26.9528 35.0865 26.9849 35.2105 26.9701C35.3345 26.9553 35.4485 26.8946 35.53 26.8L43.27 18.12C43.3523 18.0339 43.415 17.931 43.454 17.8184C43.493 17.7058 43.5072 17.5862 43.4958 17.4676C43.4845 17.349 43.4477 17.2343 43.388 17.1312C43.3283 17.028 43.2472 16.939 43.15 16.87Z" fill="#303030"/>
<path d="M51.67 22.73C47.7025 25.553 43.2579 27.6364 38.55 28.88C33.8775 30.0683 29.0962 30.7786 24.28 31C24.377 31.7102 24.5514 32.4077 24.8 33.08C27.52 35.54 48 31.34 52 26.48C52.85 25.47 51.67 22.73 51.67 22.73ZM27.35 33C27.2155 33 27.0841 32.9601 26.9722 32.8854C26.8604 32.8107 26.7733 32.7045 26.7218 32.5802C26.6703 32.4559 26.6569 32.3192 26.6831 32.1873C26.7093 32.0554 26.7741 31.9342 26.8692 31.8391C26.9643 31.744 27.0855 31.6793 27.2174 31.653C27.3493 31.6268 27.486 31.6403 27.6103 31.6917C27.7345 31.7432 27.8407 31.8304 27.9154 31.9422C27.9901 32.054 28.03 32.1855 28.03 32.32C28.0314 32.4097 28.0147 32.4987 27.981 32.5818C27.9473 32.6649 27.8973 32.7404 27.8339 32.8038C27.7705 32.8672 27.695 32.9173 27.6118 32.951C27.5287 32.9847 27.4397 33.0013 27.35 33Z" fill="#303030"/>
<path d="M7.99999 21.2899L8.15999 20.5999L10.76 21.1899C10.9745 21.5861 11.1071 22.0214 11.15 22.4699C11.1996 22.945 11.1692 23.425 11.06 23.8899C10.9305 24.5352 10.634 25.1352 10.2 25.6299C9.78708 26.097 9.25467 26.4428 8.65999 26.6299C8.04709 26.8189 7.3952 26.8431 6.76999 26.6999C6.14341 26.5646 5.56586 26.2603 5.09999 25.8199C4.64126 25.3969 4.31186 24.8526 4.14999 24.2499C3.97043 23.5954 3.97043 22.9045 4.14999 22.2499C4.25747 21.76 4.45042 21.2929 4.71999 20.8699C4.97513 20.4853 5.31784 20.1665 5.71999 19.9399L6.07999 20.4899C5.7353 20.7016 5.43941 20.9839 5.21188 21.3183C4.98434 21.6527 4.83032 22.0316 4.75999 22.4299C4.63598 22.9473 4.64631 23.4877 4.78999 23.9999C4.92436 24.4863 5.19089 24.9259 5.55999 25.2699C5.93937 25.6367 6.41403 25.8896 6.92999 25.9999C7.43032 26.1404 7.95967 26.1404 8.45999 25.9999C8.93928 25.8417 9.36976 25.5628 9.70999 25.1899C10.0596 24.7873 10.3006 24.3019 10.41 23.7799C10.5745 23.1468 10.5325 22.4776 10.29 21.8699L7.99999 21.2899Z" fill="#303030"/>
<path d="M13.66 14.9999L11.33 18.1099L12.33 19.8999L11.87 20.5199L8.16998 13.7699L8.59998 13.1799L16.13 14.7999L15.66 15.4199L13.66 14.9999ZM13 14.8399L8.99998 13.9399L11 17.5299L13 14.8399Z" fill="#303030"/>
<path d="M13 8.5501L13.6 8.1001L17.41 13.2001L20.55 10.8501L20.93 11.3601L17.2 14.1501L13 8.5501Z" fill="#303030"/>
<path d="M19.3 4.38008L19.97 4.08008L22.61 9.86008L26.18 8.24008L26.44 8.82008L22.2 10.7501L19.3 4.38008Z" fill="#303030"/>
<path d="M32.48 6.68003L32.63 7.31003L27.81 8.44003L26.21 1.62003L30.89 0.530029L31.03 1.15003L27.03 2.08003L27.6 4.50003L31.12 3.67003L31.27 4.29003L27.74 5.11003L28.34 7.64003L32.48 6.68003Z" fill="#303030"/>
<path d="M39.35 6.92997L37.68 4.72997C37.4935 4.74029 37.3065 4.74029 37.12 4.72997L35.24 4.78997L35.31 7.00997H34.57L34.34 0.00996866L37 -3.1339e-05C37.7521 -0.0694894 38.5042 0.132721 39.12 0.569969C39.3796 0.778962 39.5882 1.04418 39.7303 1.3456C39.8723 1.64702 39.944 1.97678 39.94 2.30997C39.9692 2.80416 39.8396 3.29473 39.57 3.70997C39.2827 4.10853 38.8766 4.40603 38.41 4.55997L40.16 6.89997L39.35 6.92997ZM38.65 3.63997C38.8298 3.47531 38.9692 3.27154 39.0577 3.04439C39.1461 2.81725 39.1811 2.57281 39.16 2.32997C39.1652 2.08584 39.1148 1.84374 39.0125 1.62198C38.9103 1.40022 38.759 1.20461 38.57 1.04997C38.1091 0.737448 37.5549 0.592707 37 0.639969L35.1 0.709969L35.22 4.20997L37.08 4.14997C37.6472 4.17096 38.2035 3.99026 38.65 3.63997Z" fill="#303030"/>
<path d="M44.64 5.07L44.28 7.46L43.55 7.35L43.92 5L41.85 0L42.63 0.12L44.4 4.38L47.4 0.85L48.1 1L44.64 5.07Z" fill="#303030"/>
<path d="M54.53 4.64993L55.4 5.77993L55.02 6.07993L54.15 4.91993L53.6 6.22993L53.18 6.04993L53.74 4.73993L52.3 4.92993V4.44993L53.72 4.28993L52.84 3.15993L53.23 2.85993L54 3.99993L54.54 2.67993L54.97 2.85993L54.46 4.19993L55.9 3.99993V4.48993L54.53 4.64993Z" fill="#303030"/>
<path d="M57.87 12.7099C57.6339 12.3458 57.4866 11.9314 57.44 11.4999L58.03 11.2399C58.0743 11.6363 58.2039 12.0184 58.41 12.3599C58.6334 12.7428 58.9248 13.0817 59.27 13.3599C59.6264 13.7012 60.0813 13.9216 60.57 13.9899C60.7466 14.0063 60.9245 13.9793 61.0883 13.9114C61.2521 13.8434 61.3969 13.7365 61.51 13.5999C61.5929 13.5084 61.6562 13.4008 61.6957 13.2838C61.7353 13.1669 61.7504 13.043 61.74 12.9199C61.7069 12.6762 61.6253 12.4416 61.5 12.2299C61.3121 11.923 61.1085 11.6259 60.89 11.3399C60.6238 10.9911 60.3831 10.6235 60.17 10.2399C60.0071 9.95284 59.9178 9.6299 59.91 9.29992C59.9093 8.92934 60.0486 8.57218 60.3 8.29992C60.5179 8.03604 60.8055 7.83857 61.13 7.72992C61.4926 7.62518 61.8774 7.62518 62.24 7.72992C62.7072 7.88269 63.139 8.12751 63.51 8.44992C63.8179 8.70599 64.0903 9.00192 64.32 9.32992C64.5324 9.63408 64.6914 9.97227 64.79 10.3299L64.22 10.6299C64.1206 10.2966 63.9723 9.97979 63.78 9.68992C63.5884 9.43106 63.3631 9.199 63.11 8.99992C62.7589 8.66016 62.3054 8.44575 61.82 8.38992C61.6416 8.375 61.4623 8.40466 61.2982 8.47623C61.1342 8.5478 60.9904 8.65903 60.88 8.79992C60.7949 8.89 60.7304 8.99741 60.6907 9.11477C60.651 9.23214 60.6371 9.35669 60.65 9.47992C60.6734 9.73209 60.7556 9.97526 60.89 10.1899C61.03 10.4199 61.23 10.7199 61.5 11.0799C61.7677 11.4207 62.0084 11.7818 62.22 12.1599C62.3864 12.4461 62.4792 12.7691 62.49 13.0999C62.4907 13.4705 62.3514 13.8277 62.1 14.0999C61.8813 14.3674 61.5894 14.5655 61.26 14.6699C60.8981 14.7792 60.5119 14.7792 60.15 14.6699C59.6796 14.5176 59.2444 14.2728 58.87 13.9499C58.4663 13.5986 58.1278 13.1788 57.87 12.7099Z" fill="#303030"/>
<path d="M67.93 14.17L66.52 12.17L67.04 11.8L70.29 16.44L69.77 16.81L68.36 14.81L63.14 18.46L62.72 17.85L67.93 14.17Z" fill="#303030"/>
<path d="M65.69 22.39C65.8685 21.7856 66.2153 21.2445 66.69 20.83C67.1543 20.4141 67.7199 20.1279 68.33 20C68.9519 19.8572 69.6004 19.8814 70.21 20.07C70.7983 20.2645 71.3257 20.6092 71.74 21.07C72.1708 21.5656 72.4639 22.1656 72.59 22.81C72.7556 23.4426 72.7556 24.1073 72.59 24.74C72.4065 25.3421 72.0605 25.8819 71.59 26.3C71.1128 26.727 70.5333 27.0233 69.9077 27.16C69.2821 27.2967 68.6318 27.2691 68.02 27.08C67.4271 26.8949 66.8974 26.5487 66.49 26.08C66.0611 25.587 65.7682 24.9907 65.64 24.35C65.4872 23.7033 65.5044 23.028 65.69 22.39ZM67 25.57C67.3339 25.9502 67.7665 26.2306 68.25 26.38C68.7483 26.5245 69.2749 26.5417 69.7816 26.4298C70.2883 26.318 70.7588 26.0808 71.15 25.74C71.5191 25.4004 71.7916 24.9691 71.94 24.49C72.0794 23.9841 72.0931 23.4517 71.9798 22.9393C71.8665 22.4269 71.6297 21.95 71.29 21.55C70.9414 21.1679 70.4955 20.8879 70 20.74C69.4954 20.606 68.9646 20.606 68.46 20.74C67.9508 20.8377 67.4795 21.0768 67.1 21.43C66.7275 21.7708 66.4545 22.2062 66.31 22.69C66.1742 23.1977 66.1742 23.7322 66.31 24.24C66.4195 24.7361 66.6574 25.1947 67 25.57Z" fill="#303030"/>
<path d="M64.93 33.9999L67.52 32.9999C67.52 32.8199 67.58 32.6399 67.63 32.4499L68.12 30.6399L66 30.0899L66.19 29.3799L72.95 31.1899L72.27 33.7199C72.1168 34.4581 71.7055 35.1176 71.11 35.5799C70.8363 35.7699 70.5224 35.8941 70.1928 35.9427C69.8632 35.9912 69.5268 35.9629 69.21 35.8599C68.7274 35.7552 68.295 35.4891 67.9841 35.1055C67.6732 34.7219 67.5024 34.2437 67.5 33.7499L64.74 34.7499L64.93 33.9999ZM68.28 34.2799C68.3971 34.4924 68.556 34.679 68.7472 34.8286C68.9383 34.9781 69.1577 35.0875 69.3921 35.1501C69.6266 35.2126 69.8713 35.2272 70.1115 35.1928C70.3517 35.1584 70.5825 35.0758 70.79 34.9499C71.2314 34.5954 71.5326 34.0957 71.64 33.5399L72.12 31.7399L68.73 30.8299L68.25 32.6299C68.0655 33.1663 68.0761 33.7506 68.28 34.2799Z" fill="#303030"/>
<path d="M61.34 40.4401L60.83 40.0501L63.83 36.1001L69.41 40.3301L66.51 44.1601L66 43.7701L68.45 40.5401L66.45 39.0301L64.26 41.9201L63.76 41.5401L66 38.6501L63.93 37.0801L61.34 40.4401Z" fill="#303030"/>
<path d="M59 48.4099L57.57 48.4899V48.0099L59 47.9999L58.23 46.8099L58.62 46.5599L59.38 47.7599L60 46.4199L60.43 46.6499L59.75 47.9099L61.18 47.8299V48.3199H59.73L60.5 49.5099L60.11 49.7599L59.35 48.5599L58.69 49.8599L58.27 49.6199L59 48.4099Z" fill="#303030"/>
<path d="M46 47.6099L47.21 48.2799C47.4128 47.8902 47.696 47.5479 48.0407 47.2756C48.3854 47.0033 48.7839 46.8071 49.21 46.6999C49.6074 46.576 50.0254 46.5318 50.44 46.5699C50.7997 46.5975 51.1452 46.7219 51.44 46.9299C51.7064 47.1308 51.9025 47.4108 52 47.7299C52.1205 48.1247 52.0993 48.5491 51.94 48.9299C51.6891 49.4473 51.3508 49.9175 50.94 50.3199C51.2697 50.4971 51.5755 50.7155 51.85 50.9699C52.0386 51.1648 52.179 51.4011 52.26 51.6599C52.3112 51.8617 52.3144 52.0726 52.2693 52.2759C52.2241 52.4791 52.1319 52.6688 52 52.8299C51.733 53.2146 51.3347 53.4884 50.88 53.5999C50.4807 53.7522 50.0393 53.7522 49.64 53.5999C49.4624 53.5235 49.305 53.407 49.1801 53.2596C49.0551 53.1121 48.9661 52.9376 48.92 52.7499C48.8151 52.4198 48.8402 52.0622 48.99 51.7499C49.2195 51.2953 49.52 50.8801 49.88 50.5199L47.47 49.1799C47.378 49.6508 47.3578 50.1329 47.41 50.6099H46.8C46.7589 50.0225 46.8267 49.4326 47 48.8699L45.74 48.1699L46 47.6099ZM47.74 48.6099L50.39 50.0799C50.7373 49.7483 51.0248 49.3592 51.24 48.9299C51.3499 48.64 51.3499 48.3199 51.24 48.0299C51.1946 47.8567 51.1069 47.6974 50.9847 47.5665C50.8625 47.4356 50.7097 47.3371 50.54 47.2799C50.1248 47.1397 49.6751 47.1397 49.26 47.2799C48.9207 47.3694 48.6053 47.5322 48.3357 47.7568C48.0662 47.9814 47.8492 48.2624 47.7 48.5799L47.74 48.6099ZM51.5 52.6099C51.5653 52.4994 51.6063 52.3762 51.6201 52.2486C51.6339 52.1209 51.6202 51.9918 51.58 51.8699C51.5187 51.6724 51.4087 51.4936 51.26 51.3499C51.0054 51.1352 50.7269 50.9506 50.43 50.7999C50.1268 51.0997 49.8615 51.4356 49.64 51.7999C49.5191 52.0271 49.4904 52.2921 49.56 52.5399C49.5917 52.6543 49.6473 52.7607 49.7232 52.8521C49.799 52.9434 49.8934 53.0177 50 53.0699C50.2546 53.1659 50.5354 53.1659 50.79 53.0699C51.0619 52.9974 51.2992 52.8309 51.46 52.5999L51.5 52.6099Z" fill="#303030"/>
<path d="M33.81 55.3201L33.95 48.3201H34.66L34.55 53.9201L37.39 49.2601H37.74L40.4 54.0001L40.5 48.4301H41.21L41.08 55.4301H40.47L37.53 50.2001L34.42 55.3301L33.81 55.3201Z" fill="#303030"/>
<path d="M30.33 48.0001C30.7873 48.4359 31.1145 48.9902 31.2752 49.6012C31.4359 50.2121 31.4237 50.8557 31.24 51.4601C31.0757 52.079 30.7475 52.6421 30.29 53.0901C29.8454 53.5271 29.2879 53.8318 28.68 53.9701C28.0387 54.1148 27.3711 54.0941 26.74 53.9101C26.111 53.7565 25.5323 53.443 25.06 53.0001C24.6095 52.5698 24.2875 52.0228 24.13 51.4201C23.9762 50.7971 23.9876 50.1447 24.1629 49.5274C24.3383 48.9101 24.6716 48.3492 25.13 47.9001C25.5667 47.4642 26.1123 47.1534 26.71 47.0001C27.348 46.8558 28.0122 46.8765 28.64 47.0601C29.2755 47.2212 29.858 47.5452 30.33 48.0001ZM26.92 47.6501C26.4308 47.764 25.9837 48.0135 25.63 48.3701C25.2616 48.737 24.9991 49.1965 24.87 49.7001C24.7305 50.2006 24.7305 50.7296 24.87 51.2301C24.9879 51.717 25.241 52.1607 25.6 52.5101C25.9765 52.8783 26.4414 53.1435 26.95 53.2801C27.4585 53.4096 27.9914 53.4096 28.5 53.2801C28.9895 53.1597 29.4382 52.9112 29.8 52.5601C30.1664 52.1917 30.4286 51.7328 30.56 51.2301C30.6998 50.7263 30.6998 50.1939 30.56 49.6901C30.432 49.205 30.1765 48.7631 29.82 48.4101C29.4415 48.0414 28.9723 47.7792 28.46 47.6501C27.9561 47.5108 27.4239 47.5108 26.92 47.6501Z" fill="#303030"/>
<path d="M19.35 43L19.62 45.75C19.7915 45.8233 19.9585 45.9068 20.12 46L21.75 46.94L22.85 45L23.5 45.37L20 51.4L17.72 50.09C17.0461 49.7515 16.5144 49.1844 16.22 48.49C16.1113 48.1772 16.0746 47.8439 16.1127 47.5149C16.1508 47.1859 16.2627 46.8698 16.44 46.59C16.6724 46.1518 17.0409 45.8008 17.49 45.59C17.946 45.4011 18.4505 45.3626 18.93 45.48L18.64 42.54L19.35 43ZM18.21 46.16C17.9751 46.219 17.7545 46.3247 17.5615 46.4708C17.3684 46.617 17.2068 46.8006 17.0864 47.0107C16.9659 47.2207 16.8891 47.4529 16.8605 47.6934C16.8319 47.9338 16.8522 48.1776 16.92 48.41C17.1544 48.9276 17.5607 49.3481 18.07 49.6L19.68 50.53L21.43 47.53L19.82 46.6C19.3572 46.2533 18.7875 46.0799 18.21 46.11V46.16Z" fill="#303030"/>
<path d="M13.43 38.3101L13.88 37.8601L17.33 41.4101L12.33 46.2901L9 42.8501L9.46 42.4001L12.29 45.3101L14 43.5801L11.52 41.0001L12 40.5401L14.53 43.1401L16.39 41.3301L13.43 38.3101Z" fill="#303030"/>
<path d="M5.99999 34.38L6.23999 33L6.70999 33.07L6.43999 34.49L7.76999 34L7.92999 34.44L6.57999 34.9L7.68999 35.84L7.36999 36.2L6.29999 35.2L6.04999 36.62L5.56999 36.53L5.84999 35.11L4.50999 35.59L4.35999 35.2L5.69999 34.73L4.58999 33.8L4.91999 33.44L5.99999 34.38Z" fill="#303030"/>
</g>
<defs>
<filter id="filter0_d" x="0" y="0" width="76.93" height="63.46" filterUnits="userSpaceOnUse" color-interpolation-filters="sRGB">
<feFlood flood-opacity="0" result="BackgroundImageFix"/>
<feColorMatrix in="SourceAlpha" type="matrix" values="0 0 0 0 0 0 0 0 0 0 0 0 0 0 0 0 0 0 127 0"/>
<feOffset dy="4"/>
<feGaussianBlur stdDeviation="2"/>
<feColorMatrix type="matrix" values="0 0 0 0 0 0 0 0 0 0 0 0 0 0 0 0 0 0 0.25 0"/>
<feBlend mode="normal" in2="BackgroundImageFix" result="effect1_dropShadow"/>
<feBlend mode="normal" in="SourceGraphic" in2="effect1_dropShadow" result="shape"/>
</filter>
<clipPath id="clip0">
<rect width="68.93" height="55.46" fill="white" transform="translate(4)"/>
</clipPath>
</defs>
</svg>
